<?xml version="1.0" encoding="iso-8859-1"?>
<!-- Generator: Adobe Illustrator 19.0.0, SVG Export Plug-In . SVG Version: 6.00 Build 0)  -->
<svg version="1.1" id="Layer_1" xmlns="http://www.w3.org/2000/svg" xmlns:xlink="http://www.w3.org/1999/xlink" x="0px" y="0px"
	 viewBox="0 0 472.688 472.688" style="enable-background:new 0 0 472.688 472.688;" xml:space="preserve">
<g >
	<path style="fill:#FFE100;" d="M458.255,169.437L310.488,21.669c-6.717-6.717-16.792-6.717-23.509,0L138.372,169.437
		c-6.717,6.717-6.717,16.792,0,23.508l24.348,25.188l2.519,2.519h60.45c9.235,0,16.792,7.556,16.792,16.792v60.45l1.679,1.679
		l42.819,42.819c6.717,6.717,16.792,6.717,23.509,0l148.607-148.607C464.972,187.068,464.972,176.153,458.255,169.437"/>
	<g>
		<path style="fill:#FFA800;" d="M225.689,455.737H141.73c-9.235,0-16.792-7.556-16.792-16.792V237.443
			c0-9.235,7.556-16.792,16.792-16.792h83.959c9.235,0,16.792,7.556,16.792,16.792v201.501
			C242.481,448.18,234.925,455.737,225.689,455.737"/>
		<path style="fill:#FFA800;" d="M316.365,98.072l-11.754,11.754c-3.358,3.358-8.396,3.358-11.754,0l-11.754-11.754
			c-3.358-3.358-3.358-8.396,0-11.754l11.754-11.754c3.358-3.358,8.396-3.358,11.754,0l11.754,11.754
			C319.723,89.676,319.723,94.713,316.365,98.072"/>
		<path style="fill:#FFA800;" d="M316.365,181.191l-11.754,11.754c-3.358,3.358-8.396,3.358-11.754,0l-11.754-11.754
			c-3.358-3.358-3.358-8.396,0-11.754l11.754-11.754c3.358-3.358,8.396-3.358,11.754,0l11.754,11.754
			C319.723,172.795,319.723,177.833,316.365,181.191"/>
		<path style="fill:#FFA800;" d="M316.365,276.065l-11.754,11.754c-3.358,3.358-8.396,3.358-11.754,0l-11.754-11.754
			c-3.358-3.358-3.358-8.396,0-11.754l11.754-11.754c3.358-3.358,8.396-3.358,11.754,0l11.754,11.754
			C319.723,267.669,319.723,273.546,316.365,276.065"/>
	</g>
	<path style="fill:#FFFFFF;" d="M108.147,220.652H24.188c-9.235,0-16.792,7.556-16.792,16.792v201.501
		c0,9.235,7.556,16.792,16.792,16.792h83.959c9.235,0,16.792-7.556,16.792-16.792V237.443
		C124.938,228.208,117.382,220.652,108.147,220.652z"/>
	<path style="fill:#FFE100;" d="M200.501,455.737H49.375c-9.235,0-16.792-7.556-16.792-16.792V237.443
		c0-9.235,7.556-16.792,16.792-16.792h151.126c9.235,0,16.792,7.556,16.792,16.792v201.501
		C217.293,448.18,209.737,455.737,200.501,455.737"/>
	<g>
		<path style="fill:#FFA800;" d="M74.563,296.215H57.771c-5.038,0-8.396-3.358-8.396-8.396v-16.792c0-5.038,3.358-8.396,8.396-8.396
			h16.792c5.038,0,8.396,3.358,8.396,8.396v16.792C82.959,292.856,79.601,296.215,74.563,296.215"/>
		<path style="fill:#FFA800;" d="M192.106,296.215h-16.792c-5.038,0-8.396-3.358-8.396-8.396v-16.792
			c0-5.038,3.358-8.396,8.396-8.396h16.792c5.038,0,8.396,3.358,8.396,8.396v16.792
			C200.501,292.856,197.143,296.215,192.106,296.215"/>
		<path style="fill:#FFA800;" d="M192.106,413.757h-16.792c-5.038,0-8.396-3.358-8.396-8.396V388.57
			c0-5.038,3.358-8.396,8.396-8.396h16.792c5.038,0,8.396,3.358,8.396,8.396v16.792
			C200.501,410.399,197.143,413.757,192.106,413.757"/>
		<path style="fill:#FFA800;" d="M74.563,413.757H57.771c-5.038,0-8.396-3.358-8.396-8.396V388.57c0-5.038,3.358-8.396,8.396-8.396
			h16.792c5.038,0,8.396,3.358,8.396,8.396v16.792C82.959,410.399,79.601,413.757,74.563,413.757"/>
		<path style="fill:#FFA800;" d="M133.334,354.986h-16.792c-5.038,0-8.396-3.358-8.396-8.396v-16.792
			c0-5.038,3.358-8.396,8.396-8.396h16.792c5.038,0,8.396,3.358,8.396,8.396v16.792C141.73,351.628,138.372,354.986,133.334,354.986
			"/>
	</g>
	<path d="M74.563,304.611H57.771c-9.235,0-16.792-7.556-16.792-16.792v-16.792c0-9.235,7.556-16.792,16.792-16.792h16.792
		c9.235,0,16.792,7.556,16.792,16.792v16.792C91.355,297.054,83.799,304.611,74.563,304.611z M74.563,287.819v8.396V287.819
		L74.563,287.819z M57.771,271.027v16.792h16.792v-16.792H57.771z"/>
	<path d="M192.106,304.611h-16.792c-9.235,0-16.792-7.556-16.792-16.792v-16.792c0-9.235,7.556-16.792,16.792-16.792h16.792
		c9.235,0,16.792,7.556,16.792,16.792v16.792C208.897,297.054,201.341,304.611,192.106,304.611z M192.106,287.819v8.396V287.819
		L192.106,287.819z M175.314,271.027v16.792h16.792v-16.792H175.314z"/>
	<path d="M298.733,120.74L298.733,120.74c-4.198,0-8.396-1.679-11.754-5.038l-11.754-11.754c-6.717-6.717-6.717-16.792,0-23.509
		l11.754-11.754c3.358-3.358,7.556-5.038,11.754-5.038l0,0c4.198,0,8.396,1.679,11.754,5.038l11.754,11.754
		c3.358,3.358,5.038,7.556,5.038,11.754s-1.679,8.396-5.038,11.754l0,0l-11.754,11.754
		C307.129,119.061,302.931,120.74,298.733,120.74z M298.733,80.44l-11.754,11.754l11.754,11.754l11.754-11.754L298.733,80.44z"/>
	<path d="M298.733,203.86L298.733,203.86c-4.198,0-8.396-1.679-11.754-5.038l-12.594-11.754c-6.717-6.717-6.717-16.792,0-23.508
		l11.754-11.754c3.358-3.358,7.556-5.038,11.754-5.038l0,0c4.198,0,8.396,1.679,11.754,5.038l11.754,11.754
		c3.358,3.358,5.038,7.556,5.038,11.754s-1.679,8.396-5.038,11.754l0,0l-11.754,11.754
		C307.129,202.181,302.931,203.86,298.733,203.86z M298.733,163.56l-11.754,11.754l11.754,11.754l11.754-11.754L298.733,163.56z"/>
	<path d="M298.733,299.573L298.733,299.573c-4.198,0-8.396-1.679-11.754-5.038l-11.754-11.754c-6.717-6.717-6.717-16.792,0-23.509
		l11.754-11.754c3.358-3.358,7.556-5.038,11.754-5.038l0,0c4.198,0,8.396,1.679,11.754,5.038l11.754,11.754
		c6.717,6.717,6.717,16.792,0,23.509l-11.754,11.754C307.129,297.054,302.931,299.573,298.733,299.573z M298.733,258.433
		l-11.754,11.754l11.754,11.754l11.754-11.754L298.733,258.433z"/>
	<path d="M192.106,422.153h-16.792c-9.235,0-16.792-7.556-16.792-16.792V388.57c0-9.235,7.556-16.792,16.792-16.792h16.792
		c9.235,0,16.792,7.556,16.792,16.792v16.792C208.897,414.597,201.341,422.153,192.106,422.153z M192.106,405.361v8.396V405.361
		L192.106,405.361z M175.314,388.57v16.792h16.792V388.57H175.314z"/>
	<path d="M74.563,422.153H57.771c-9.235,0-16.792-7.556-16.792-16.792V388.57c0-9.235,7.556-16.792,16.792-16.792h16.792
		c9.235,0,16.792,7.556,16.792,16.792v16.792C91.355,414.597,83.799,422.153,74.563,422.153z M74.563,405.361v8.396V405.361
		L74.563,405.361z M57.771,388.57v16.792h16.792V388.57H57.771z"/>
	<path d="M133.334,363.382h-16.792c-9.235,0-16.792-7.556-16.792-16.792v-16.792c0-9.235,7.556-16.792,16.792-16.792h16.792
		c9.235,0,16.792,7.556,16.792,16.792v16.792C150.126,355.826,142.57,363.382,133.334,363.382z M133.334,346.59v8.396V346.59
		L133.334,346.59z M116.543,329.798v16.792h16.792v-16.792H116.543z"/>
	<path d="M464.972,163.56L316.365,14.952c-10.075-10.075-26.027-10.075-35.263,0L132.495,163.56
		c-5.038,5.038-7.556,10.915-7.556,17.631s2.519,13.433,7.556,17.631l12.594,12.594H24.188C9.915,211.416-1,222.331-1,236.604
		v201.501c0,14.273,10.915,25.188,25.188,25.188h201.501c14.273,0,25.188-10.915,25.188-25.188V318.044l29.386,29.386
		c5.038,5.038,11.754,7.556,17.631,7.556c6.717,0,12.594-2.519,17.631-7.556l148.607-148.607c5.038-5.038,7.556-10.915,7.556-17.631
		C471.689,174.474,469.17,168.597,464.972,163.56z M234.085,438.945c0,5.038-3.358,8.396-8.396,8.396H24.188
		c-5.038,0-8.396-3.358-8.396-8.396V237.443c0-5.038,3.358-8.396,8.396-8.396h201.501c5.038,0,8.396,3.358,8.396,8.396v63.809
		V438.945z M452.378,187.068L304.611,335.675c-3.358,3.358-8.396,3.358-11.754,0l-41.979-41.979v-56.252l0,0
		c0-14.273-10.915-25.188-25.188-25.188h-56.253l-25.188-25.188c-1.679-1.679-2.519-3.358-2.519-5.877s0.84-4.198,2.519-5.877
		L292.856,27.546c3.358-3.358,8.396-3.358,11.754,0l147.768,147.768l0,0c1.679,1.679,2.519,3.358,2.519,5.877
		S454.058,186.228,452.378,187.068z"/>
</g>
<g>
</g>
<g>
</g>
<g>
</g>
<g>
</g>
<g>
</g>
<g>
</g>
<g>
</g>
<g>
</g>
<g>
</g>
<g>
</g>
<g>
</g>
<g>
</g>
<g>
</g>
<g>
</g>
<g>
</g>
</svg>
