<svg width="614" height="76" viewBox="0 0 614 76" fill="none" xmlns="http://www.w3.org/2000/svg">
<path d="M1 58.126C42.6582 58.126 74.072 35.3037 112.778 23.3482C183.638 1.46109 267.58 -4.18081 341 5.68158C372.182 9.87021 406.279 17.8276 431.333 38.3482M431.333 38.3482C439.826 45.3041 453.399 63.142 439.778 72.9038M431.333 38.3482C432.386 39.2101 433.516 40.2392 434.663 41.3991M439.778 72.9038C429.788 80.0632 423.574 67.769 425.111 59.4594M439.778 72.9038C451.711 64.3516 442.772 49.6007 434.663 41.3991M425.111 59.4594C428.028 43.6941 442.252 32.919 456 27.126M425.111 59.4594C426.407 52.4543 429.936 46.4345 434.663 41.3991M456 27.126C504.807 6.55976 562.547 15.9667 612.889 22.7927M456 27.126C448.361 30.345 440.575 35.1023 434.663 41.3991" stroke="#061384" stroke-width="2" stroke-linecap="round" stroke-dasharray="8 8"/>
</svg>
