<?xml version="1.0" encoding="utf-8"?>
<!-- Svg Vector Icons : http://www.onlinewebfonts.com/icon -->
<!DOCTYPE svg PUBLIC "-//W3C//DTD SVG 1.1//EN" "http://www.w3.org/Graphics/SVG/1.1/DTD/svg11.dtd">
<svg version="1.1" xmlns="http://www.w3.org/2000/svg" xmlns:xlink="http://www.w3.org/1999/xlink" x="0px" y="0px" viewBox="0 0 1000 1000" enable-background="new 0 0 1000 1000" xml:space="preserve">
<metadata> Svg Vector Icons : http://www.onlinewebfonts.com/icon </metadata>
<g><path d="M500,10c270.6,0,490,219.4,490,490c0,270.6-219.4,490-490,490C229.4,990,10,770.6,10,500C10,229.4,229.4,10,500,10L500,10z M536.8,708.8V286.6c0,0-13.4-38.8-46.7-9.5c-33.3,29.3-112.9,102.4-112.9,102.4H252.6c-8.4,0-22.1-1-22.1,29.9c0,30.8,0,182,0,182c0,14.5,10.9,24.9,22.9,24.9c12,0,117.4,0,117.4,0L491.3,721C508.8,736.2,536.8,744,536.8,708.8L536.8,708.8z M769.2,513.6c3.9-75.5-30.8-145-89.4-194.5c-19.2-12.8-47.3,13.5-35.7,29.5c49.3,41.5,78.6,99.7,75.3,163.2c-3,57.7-32.3,109-77.6,146.2c-15.8,19,21.7,40.4,34.2,30.7C730.5,644.2,765.6,582.6,769.2,513.6L769.2,513.6z M621.6,507.7c-1.9,36.2-19.6,68.6-47.3,92.5c-13.8,16.9,16.5,39.5,33.2,27.3c35.3-30.6,58-72,60.4-118.1c2.7-51.6-20.5-99.1-59.8-133.4c-19.4-14.5-46.8,13-34.7,26C604.9,429,623.7,466.7,621.6,507.7L621.6,507.7z"/></g>
</svg>