<svg width="1498" height="103" viewBox="0 0 1498 103" fill="none" xmlns="http://www.w3.org/2000/svg">
<path d="M1 36C27.2662 10.6192 59.8095 -0.0371589 96.5556 1.11115C141.04 2.5013 178.304 25.9087 218.556 41.5556C231.555 46.6089 275.046 67.5494 287.222 50.4445C292.45 43.1005 287.013 32.4356 280.778 28C266.175 17.6122 242.473 15.2924 225.889 21.5556C208.13 28.2624 191.436 50.6823 205.222 68.8889C227.034 97.6943 281.443 104.581 314.333 99.5556C360.139 92.5575 394.927 53.8527 438.556 39.6667C488.299 23.4926 545.584 18.634 597.556 19C653.206 19.392 712.902 25.1317 765 45.6667C802.647 60.5056 844.875 63.3334 885.111 63.3334C926.769 63.3334 958.183 40.5111 996.889 28.5556C1067.75 6.66844 1151.69 1.02654 1225.11 10.8889C1256.29 15.0776 1290.39 23.035 1315.44 43.5556C1323.94 50.5115 1337.51 68.3493 1323.89 78.1112C1313.9 85.2705 1307.68 72.9764 1309.22 64.6667C1312.14 48.9015 1326.36 38.1264 1340.11 32.3334C1388.92 11.7671 1446.66 21.174 1497 28" stroke="#FFC107" stroke-width="2" stroke-linecap="round" stroke-dasharray="8 8"/>
</svg>
